<svg width="367" height="367" xmlns="http://www.w3.org/2000/svg" xmlns:xlink="http://www.w3.org/1999/xlink" overflow="hidden"><defs><clipPath id="clip0"><rect x="44" y="-7" width="367" height="367"/></clipPath></defs><g clip-path="url(#clip0)" transform="translate(-44 7)"><path d="M227.5 272.073C189.271 272.073 158.688 241.49 158.688 203.26 158.688 165.031 189.271 134.448 227.5 134.448 265.729 134.448 296.312 165.031 296.312 203.26 296.312 241.49 265.729 272.073 227.5 272.073ZM151.042 149.74 105.167 149.74 105.167 119.156 151.042 119.156 151.042 149.74ZM365.125 88.5729 288.667 88.5729 265.729 50.3438 189.271 50.3438 166.333 88.5729 89.875 88.5729C81.4646 88.5729 74.5833 95.4542 74.5833 103.865L74.5833 287.365C74.5833 295.775 81.4646 302.656 89.875 302.656L365.125 302.656C373.535 302.656 380.417 295.775 380.417 287.365L380.417 103.865C380.417 95.4542 373.535 88.5729 365.125 88.5729Z" fill="#7AE7C7"/><path d="M227.5 165.031C206.092 165.031 189.271 181.852 189.271 203.26 189.271 224.669 206.092 241.49 227.5 241.49 248.908 241.49 265.729 224.669 265.729 203.26 265.729 181.852 248.908 165.031 227.5 165.031ZM227.5 256.781C197.681 256.781 173.979 233.079 173.979 203.26 173.979 173.442 197.681 149.74 227.5 149.74 257.319 149.74 281.021 173.442 281.021 203.26 281.021 233.079 257.319 256.781 227.5 256.781Z" fill="#7AE7C7"/></g></svg>