<svg width="96" height="96" xmlns="http://www.w3.org/2000/svg" xmlns:xlink="http://www.w3.org/1999/xlink" overflow="hidden"><defs><clipPath id="clip0"><rect x="644" y="381" width="96" height="96"/></clipPath></defs><g clip-path="url(#clip0)" transform="translate(-644 -381)"><path d="M692 454C682 454 674 446 674 436 674 426 682 418 692 418 702 418 710 426 710 436 710 446 702 454 692 454ZM672 422 660 422 660 414 672 414 672 422ZM728 406 708 406 702 396 682 396 676 406 656 406C653.8 406 652 407.8 652 410L652 458C652 460.2 653.8 462 656 462L728 462C730.2 462 732 460.2 732 458L732 410C732 407.8 730.2 406 728 406Z" fill="#58355E"/><path d="M692 426C686.4 426 682 430.4 682 436 682 441.6 686.4 446 692 446 697.6 446 702 441.6 702 436 702 430.4 697.6 426 692 426ZM692 450C684.2 450 678 443.8 678 436 678 428.2 684.2 422 692 422 699.8 422 706 428.2 706 436 706 443.8 699.8 450 692 450Z" fill="#58355E"/></g></svg>