<svg width="295" height="295" xmlns="http://www.w3.org/2000/svg" xmlns:xlink="http://www.w3.org/1999/xlink" overflow="hidden"><defs><clipPath id="clip0"><rect x="227" y="5" width="295" height="295"/></clipPath></defs><g clip-path="url(#clip0)" transform="translate(-227 -5)"><path d="M365.281 158.646C365.281 172.223 354.275 183.229 340.698 183.229 327.121 183.229 316.115 172.223 316.115 158.646 316.115 145.069 327.121 134.062 340.698 134.062 354.275 134.062 365.281 145.069 365.281 158.646Z" fill="#58355E"/><path d="M432.885 158.646C432.885 172.223 421.879 183.229 408.302 183.229 394.725 183.229 383.719 172.223 383.719 158.646 383.719 145.069 394.725 134.062 408.302 134.062 421.879 134.062 432.885 145.069 432.885 158.646Z" fill="#58355E"/><path d="M387.191 201.298C388.99 204.296 388.018 208.184 385.021 209.983 384.042 210.57 382.924 210.882 381.783 210.885L367.217 210.885C363.721 210.875 360.896 208.032 360.907 204.536 360.91 203.395 361.222 202.276 361.809 201.298L369.092 189.191C370.875 186.204 374.743 185.228 377.73 187.012 378.625 187.547 379.374 188.295 379.908 189.191Z" fill="#58355E"/><path d="M374.5 32.6562C321.984 32.6562 279.24 78.75 279.24 135.599 279.24 158.123 285.693 176.254 300.75 195.644L300.75 211.008C300.518 225.213 311.2 237.23 325.333 238.665L325.333 263.248C325.333 268.339 329.461 272.467 334.552 272.467L414.448 272.467C419.539 272.467 423.667 268.339 423.667 263.248L423.667 238.542C437.8 237.107 448.482 225.09 448.25 210.885L448.25 195.521C463.307 176.131 469.76 158.001 469.76 135.476 469.76 78.75 427.016 32.6562 374.5 32.6562ZM431.871 186.64C430.539 188.283 429.812 190.333 429.812 192.448L429.812 210.885C429.933 215.856 426 219.984 421.029 220.104 420.884 220.108 420.739 220.108 420.594 220.104L414.448 220.104C409.356 220.104 405.229 224.231 405.229 229.323L405.229 253.906 392.938 253.906 392.938 235.469 380.646 235.469 380.646 253.906 368.354 253.906 368.354 235.469 356.062 235.469 356.062 253.906 343.771 253.906 343.771 229.323C343.771 224.231 339.644 220.104 334.552 220.104L328.406 220.104C323.435 220.224 319.308 216.292 319.188 211.321 319.184 211.176 319.184 211.03 319.188 210.885L319.188 192.448C319.188 190.333 318.461 188.283 317.129 186.64 303.301 169.585 297.677 154.805 297.677 135.599 297.677 89.0135 332.124 51.0938 374.5 51.0938 416.876 51.0938 451.323 89.0135 451.323 135.599 451.323 154.805 445.699 169.585 431.871 186.64Z" fill="#58355E"/></g></svg>